<svg width="29" height="32" viewBox="0 0 29 32" fill="none" xmlns="http://www.w3.org/2000/svg">
<path fill-rule="evenodd" clip-rule="evenodd" d="M21.1346 7.06166C21.6941 7.36055 22.6395 8.42965 23.0762 8.96504C27.465 14.3466 25.579 23.1307 19.338 26.7754C18.0839 27.5078 15.4908 28.6369 13.7472 28.7277C11.326 28.8537 9.83222 27.5159 9.15072 25.8462C8.72718 24.8085 8.7527 23.6968 9.13407 22.6431C10.2268 19.624 12.3888 20.2344 12.7908 18.814C13.128 17.6223 12.1969 16.8068 11.0461 16.8718C9.11875 17.4466 7.66982 18.8623 6.85206 20.3132C3.45684 26.337 8.61364 33.4539 15.9472 31.4461C20.4697 30.2079 23.2053 28.1483 25.3289 25.4505C30.4277 18.9729 29.4336 9.0758 22.4134 4.13905C18.0227 1.05137 13.0486 0.0927354 7.26761 1.91345C6.26166 2.23028 5.16991 2.45766 4.85775 3.34911C4.47224 4.45006 5.34573 5.45569 6.40985 5.38428C6.67249 5.36666 8.60011 4.677 9.29842 4.50008C13.0107 3.55947 15.6845 4.03367 18.9152 5.56864C19.114 5.66312 21.0873 6.77471 21.1346 7.06167V7.06166Z" fill="#282828"/>
<path fill-rule="evenodd" clip-rule="evenodd" d="M19.2264 16.8231C18.7413 19.893 17.1198 21.1579 14.6133 22.1493C13.9226 22.4225 12.6498 22.7255 12.3013 23.1711C11.6883 23.9548 11.8964 24.9657 12.6336 25.4504C13.4368 25.9785 14.4572 25.4572 15.2245 25.1788C18.5463 23.9735 21.0608 22.0613 21.9955 18.6367C23.2428 14.0671 20.8088 9.63265 16.6736 7.92218C15.7266 7.53047 14.9487 7.44031 14.0833 7.23546C12.7531 7.12955 11.6994 7.14438 10.4395 7.41505C9.53968 7.60834 8.21615 8.0345 7.55349 8.44719C6.2354 9.26807 7.16193 11.8789 9.18917 11.0259C11.8056 9.92504 14.7645 9.86965 16.8182 11.4774C18.5942 12.8678 19.3356 14.4675 19.2264 16.8231Z" fill="#282828"/>
<path fill-rule="evenodd" clip-rule="evenodd" d="M2.27152 6.22742C0.992151 6.53343 -0.0963226 7.71406 0.273001 9.34031C0.547087 10.5472 1.80412 11.6672 3.38494 11.3252C4.6534 11.0508 5.78462 9.80016 5.41072 8.18789C5.12875 6.97195 3.8798 5.84273 2.27152 6.22742Z" fill="#282828"/>
</svg>
